<svg id="Outline" height="512" viewBox="0 0 64 64" width="512" xmlns="http://www.w3.org/2000/svg"><path d="m57.515 24.143-8.515-5.109v-7.034h4a1 1 0 0 0 1-1v-5.5a3.494 3.494 0 0 0 -3-3.449v-.051h-32.5a3.5 3.5 0 0 0 -3.5 3.5v13.534l-8.515 5.109a1 1 0 0 0 -.485.857v36a1 1 0 0 0 1 1h50a1 1 0 0 0 1-1v-36a1 1 0 0 0 -.485-.857zm-1.515 1.423v6.757l-4.371 1.748a1 1 0 0 0 -.629.929v10h-2v-23.634zm-4-20.066v4.5h-3v-4.5a1.5 1.5 0 0 1 3 0zm-35 0a1.5 1.5 0 0 1 1.5-1.5h28.851a3.464 3.464 0 0 0 -.351 1.5v39.5h-30zm-2 15.866v23.634h-2v-10a1 1 0 0 0 -.629-.929l-4.371-1.748v-6.757zm41 38.634h-48v-25.523l3 1.2v10.323a1 1 0 0 0 1 1h40a1 1 0 0 0 1-1v-10.323l3-1.2z"/><path d="m40 56h12v2h-12z"/><path d="m40 52h12v2h-12z"/><path d="m26 6h12v2h-12z"/><path d="m27 10h9v2h-9z"/><path d="m27 18h16v2h-16z"/><path d="m21 22h22v2h-22z"/><path d="m21 26h22v2h-22z"/><path d="m21 30h22v2h-22z"/><path d="m21 34h22v2h-22z"/><path d="m21 38h11v2h-11z"/><path d="m35 41h8v2h-8z"/></svg>